<?xml version="1.0" encoding="utf-8"?>
<!-- Generator: Adobe Illustrator 19.0.0, SVG Export Plug-In . SVG Version: 6.00 Build 0)  -->
<svg version="1.1" xmlns="http://www.w3.org/2000/svg" xmlns:xlink="http://www.w3.org/1999/xlink" x="0px" y="0px"
	 viewBox="0 0 1000 800" style="enable-background:new 0 0 1000 800;" xml:space="preserve">
<style type="text/css">
	.st0{fill:#5D93D1;}
	.st1{fill:#4A7BB5;}
	.st2{fill:#454446;}
	.st3{fill:#FFFFFF;}
	.st4{fill:#599180;}
	.st5{fill:#70A780;}
	.st6{fill:#527956;}
	.st7{fill:#456847;}
	.st8{fill:#749B77;}
	.st9{fill:#40495F;}
	.st10{fill:#D2C3A8;}
	.st11{fill:#5A5751;}
	.st12{fill:#3B3631;}
	.st13{fill:#6E694F;}
	.st14{fill:#3E3D3B;}
	.st15{fill:#909497;}
	.st16{fill:#E2D0B5;}
	.st17{fill:#ECECEC;}
	.st18{fill:#F1CC40;}
	.st19{fill:#E1CFB5;}
	.st20{fill:#44403D;}
	.st21{fill:#6A737F;}
	.st22{fill:#40382F;}
	.st23{fill:#545251;}
	.st24{fill:#363636;}
	.st25{fill:#897658;}
	.st26{fill:#A0A1A3;}
	.st27{fill:#E1CEB4;}
	.st28{fill:#4E4E4E;}
	.st29{fill:#58677F;}
	.st30{fill:#4B372C;}
	.st31{fill:#B6976F;}
	.st32{fill:#5C9373;}
	.st33{fill:#4C7F5A;}
	.st34{fill:#403C45;}
	.st35{fill:#9D3D3B;}
	.st36{fill:#8F2A2A;}
	.st37{fill:#DCB42D;}
	.st38{fill:#716456;}
	.st39{fill:#675844;}
	.st40{fill:#8F7F73;}
	.st41{fill:#E0E0E0;}
	.st42{fill:#5773AF;}
	.st43{fill:#CACCCD;}
	.st44{fill:#857459;}
	.st45{fill:#E7E3D2;}
	.st46{fill:#E0E0E1;}
	.st47{fill:#C7C9C5;}
	.st48{fill:#B5B5B0;}
	.st49{fill:#97846D;}
	.st50{fill:#A9936F;}
	.st51{fill:#8A7960;}
	.st52{fill:#9A8364;}
	.st53{fill:#E6BC3B;}
</style>
<g id="background">
</g>
<g id="object">
	<g>
		<path class="st0" d="M680.9,513.8l9.3,178.4c0.2,4.8,4.1,8.7,9,8.7h110.2c4.8,0,8.8-3.8,9-8.7l9.3-178.4H680.9z"/>
		<rect x="673.7" y="494" class="st1" width="161.2" height="19.8"/>
		<polygon class="st0" points="827.7,494 680.9,494 692.3,441.3 816.3,441.3 		"/>
		<path class="st2" d="M794.3,484.2h-80.1c-4.1,0-7.4-3.3-7.4-7.4v-11.2c0-4.1,3.3-7.4,7.4-7.4h80.1c4.1,0,7.4,3.3,7.4,7.4v11.2
			C801.7,480.9,798.4,484.2,794.3,484.2z"/>
		<g>
			<path class="st3" d="M776.1,609.4c0-0.2-0.1-0.5-0.3-0.8c-0.1-0.3-0.5-1-1.1-2L776.1,609.4z"/>
			<path class="st3" d="M755.7,582.6l5.1,1.5c1.8,0.5,4.8,1.4,6.6,2l5.1,1.5c1.8,0.5,3.6-0.6,4.1-2.5l1.2-5.3c0.4-1.9,1.1-5,1.5-6.9
				l1.2-5.3c0.4-1.9-0.8-2.5-2.6-1.4l-3.2,1.9c-1.2-2.1-2.4-4.1-2.8-4.8c-1-1.7-3-3-6.9-3c-2.9,0-10.6,0.1-15.5,0.1l6.5,11.6
				c0.1,0.1,0.3,0.3,0.4,0.6c0.3,0.6,1.5,2.8,2.6,5l-3.1,1.9C753.9,580.7,753.9,582.1,755.7,582.6z"/>
			<path class="st3" d="M737.8,564.4c-1.7,2.6-5.9,9.4-5.9,9.4c-0.9,1.5-0.5,3.5,1.1,4.5l10.3,6.2c1.5,0.9,3.5,0.4,4.5-1.1
				c0,0,5.8-9.8,6.4-10.7c0.6-0.9,1.2-1.1,1.8-0.5l-6.5-11.6c-1.7,0-3,0-3.7,0C743,560.5,739.9,561,737.8,564.4z"/>
			<path class="st3" d="M719.6,607.7c1.2,2.3,4.4,8.2,6.7,12.6l7.3-12.2c0.9-1.5,2.5-4.3,3.8-6.6l3.7,2.1c1.9,1.1,3.1,0.4,2.6-1.5
				l-1.3-5.3c-0.5-1.9-1.2-4.9-1.7-6.8l-1.3-5.3c-0.5-1.9-2.3-2.9-4.1-2.3l-5.1,1.7c-1.8,0.6-4.8,1.5-6.6,2.1l-5.1,1.7
				c-1.8,0.6-1.7,2,0.2,3l2.8,1.6c-1.4,2.8-3.1,6.1-3.5,7C717.3,601.2,717.8,604.1,719.6,607.7z"/>
			<path class="st3" d="M733.6,608.1l-7.3,12.2c1.3,2.4,2.4,4.4,2.6,4.9c0.8,1.5,1.9,4.4,8.8,4.4c7,0,10.1-0.1,10.1-0.1
				c1.8,0,3.2-1.5,3.2-3.3l-0.1-12.2c0-1.8-1.5-3.3-3.2-3.3c0,0-11.9,0.1-13.8,0.1c-1.2,0-1.4-0.8-1-1.6
				C733,609,733.3,608.6,733.6,608.1z"/>
			<path class="st3" d="M776.1,609.4l6,12.3c2.1-4,5.7-10.9,7.2-13.9c2-4,2.5-7.5,1.6-9.3c-0.9-1.8-5.4-10.7-5.4-10.7
				c-0.8-1.6-2.7-2.2-4.2-1.2l-10.2,6.4c-1.5,0.9-2,3-1.2,4.6c0,0,3.1,5.7,4.8,8.9c0.5,1,0.9,1.7,1.1,2
				C776,608.9,776,609.1,776.1,609.4z"/>
			<path class="st3" d="M780.6,624.5c0.2-0.4,0.8-1.4,1.5-2.8l-6-12.3c0.1,0.7-0.2,1.2-1.1,1.2c-0.6,0-3.5,0-6.2,0l0-3.8
				c0-2.2-1.2-2.9-2.5-1.6l-3.8,3.8c-1.4,1.3-3.6,3.5-5,4.9l-3.8,3.8c-1.4,1.3-1.3,3.5,0,4.8l3.9,3.7c1.4,1.3,3.7,3.5,5.1,4.8
				l3.9,3.7c1.4,1.3,2.5,0.6,2.5-1.6l0-3.6c1.5,0,3.2,0,4.8,0C778,629.3,779.7,626.1,780.6,624.5z"/>
		</g>
	</g>
	<g>
		<g>
			<path class="st4" d="M401.4,167l14.6,4.3c5.2,1.5,13.6,4.1,18.8,5.6l14.6,4.3c5.2,1.5,10.4-1.6,11.6-7l3.4-15.1
				c1.2-5.4,3.1-14.2,4.3-19.5l3.4-15.1c1.2-5.4-2.2-7.1-7.5-3.9l-9.1,5.5c-3.3-5.8-6.7-11.6-8-13.8c-2.9-4.8-8.6-8.5-19.7-8.4
				c-8.2,0-30.1,0.2-44,0.3l18.4,33c0.4,0.4,0.8,1,1.1,1.7c0.9,1.8,4.2,8.1,7.5,14.2l-8.9,5.4C396.4,161.6,396.3,165.5,401.4,167z"
				/>
			<path class="st5" d="M350.5,115.1c-4.7,7.3-16.7,26.8-16.7,26.8c-2.7,4.4-1.3,10.1,3,12.7l29.3,17.6c4.4,2.6,10.1,1.1,12.7-3.3
				c0,0,16.5-27.8,18.1-30.4c1.6-2.7,3.5-3.1,5-1.5l-18.4-33c-4.8,0-8.6,0.1-10.6,0.1C365.4,104.2,356.7,105.6,350.5,115.1z"/>
			<path class="st4" d="M298.7,238.4c3.3,6.6,12.5,23.4,19.2,35.8l20.8-34.8c2.4-4.3,7-12.2,10.8-18.8l10.6,6.1
				c5.4,3.1,8.7,1.2,7.4-4.1l-3.7-15c-1.3-5.3-3.5-14.1-4.8-19.4l-3.7-15c-1.3-5.3-6.6-8.3-11.7-6.7l-14.4,4.7
				c-5.1,1.7-13.5,4.4-18.7,6.1l-14.4,4.7c-5.1,1.7-4.9,5.6,0.5,8.6l7.8,4.5c-4,7.9-8.7,17.3-9.9,20
				C292.2,219.9,293.5,228.2,298.7,238.4z"/>
			<path class="st5" d="M338.6,239.5l-20.8,34.8c3.7,6.9,6.7,12.4,7.5,13.9c2.2,4.3,5.3,12.6,25.2,12.5c19.8-0.1,28.8-0.2,28.8-0.2
				c5,0,9.2-4.3,9.1-9.4l-0.2-34.8c0-5.2-4.2-9.4-9.2-9.3c0,0-33.8,0.2-39.4,0.2c-3.6,0-4-2.4-2.8-4.6
				C337,242.2,337.7,241.1,338.6,239.5z"/>
			<path class="st4" d="M459.5,243.2l17.2,35.1c6-11.3,16.2-31,20.4-39.5c5.6-11.4,7.2-21.3,4.6-26.5c-2.6-5.2-15.3-30.4-15.3-30.4
				c-2.3-4.6-7.7-6.1-12-3.4l-29.1,18.3c-4.3,2.7-5.8,8.6-3.4,13.1c0,0,8.9,16.3,13.8,25.4c1.5,2.8,2.7,5,3.1,5.7
				C459.2,241.8,459.4,242.5,459.5,243.2z"/>
			<path class="st5" d="M472.5,286.2c0.7-1.2,2.2-4.1,4.3-7.9l-17.2-35.1c0.4,2-0.6,3.4-3.1,3.4c-1.7,0-10.1,0.1-17.8,0.1l-0.1-10.9
				c-0.1-6.3-3.3-8.4-7.2-4.6L420.4,242c-3.9,3.8-10.3,10-14.1,13.9l-10.9,10.7c-3.9,3.8-3.8,10,0.1,13.7l11.1,10.5
				c4,3.7,10.4,9.9,14.4,13.6l11.1,10.5c4,3.7,7.2,1.6,7.1-4.7l-0.1-10.3c4.4,0,9.2-0.1,13.6-0.1
				C465.1,299.8,469.8,290.9,472.5,286.2z"/>
		</g>
		<g>
			<path class="st6" d="M672,214.7l9.1-26.1c0.8-2.3-0.3-4.9-2.7-5.8l-6.6-2.6c-2.3-0.9-4.9,0.1-6,2.4l-11.4,25.2
				c-0.8,1.8-2.7,2.8-4.7,2.7c-6.2-0.4-12.3,3.1-14.7,9.2L608,287.3c-1,2.4,0.2,5.1,2.6,6l34.1,13.7c2.4,1,5.1-0.2,6-2.6l27.2-67.7
				c2.4-6.1,0.5-12.9-4.3-16.8C672.1,218.6,671.4,216.6,672,214.7z"/>
			
				<rect x="665.4" y="179.1" transform="matrix(0.9282 0.372 -0.372 0.9282 115.9952 -238.1933)" class="st7" width="19.7" height="4.7"/>
			<g>
				<path class="st8" d="M663.6,264.2l-2.7-1.1l9.9-24.6c3.5-10.3-2-12.9-2.2-13.1l1.2-2.7c0.3,0.1,8.2,3.7,3.8,16.8L663.6,264.2z"
					/>
			</g>
		</g>
		<g>
			<polygon class="st9" points="596.6,375.6 544.4,413.7 510.7,398.3 504,410.6 526.6,429.8 546,437.1 596.6,412.7 			"/>
			<polygon class="st10" points="667.1,296.5 668.2,280.6 655.3,270.5 649.9,277.6 655.7,288.1 653.6,293.5 659.4,302.1 			"/>
			<g>
				<g>
					<g>
						<polygon class="st11" points="564.6,478.2 563.6,568.7 573.2,685.2 586.3,685.2 602,577.7 619.9,470 						"/>
						<polygon class="st12" points="586.2,690.7 572.1,697.8 565,690.7 572.1,683.6 586.2,683.6 						"/>
					</g>
					<g>
						<polygon class="st11" points="654.5,478.2 654.8,530.5 645.9,685.2 632.8,685.2 610.9,582.6 599.2,470 						"/>
						<polygon class="st12" points="632.9,690.7 647.1,697.8 654.2,690.7 647.1,683.6 632.9,683.6 						"/>
					</g>
				</g>
				<path class="st9" d="M668.1,509.7c0.3,8.3,0.1,19.4-3.4,19.8c-0.7,0.1-1.3-0.2-1.9-0.5c-6.1-3-10.4-7.1-16.4-10
					c-6.3-3-13.4-4.6-20.4-5.6c-10.4-1.7-21-2.7-31.5-2.8c-9-0.1-18.4,4-26.9,6.3c-3.3,0.9-5.9,3.3-8.7,5.1c-4,2.8-5.8,3.9-5.2-1.8
					c0.9-9.2,1.8-18.4,3-27.6c2.3-18.3,5.3-36.6,10.6-54.4c2-6.8,4.3-13.5,6.6-20.2c2.8-8.1,5.6-16.3,8.4-24.4
					c3.5-10.1,9.3-17.2,19.6-20.8c8.9-3.1,19.9-3.9,28.5,0.4c9.6,4.8,14.2,21,18.8,29.6c4.1,7.6,9.2,28.3,10.8,36.5
					c1.8,9.9,3.5,19.7,4.9,29.4c1.5,10.8,2.5,21.6,2.8,32.4C667.8,502.4,668,505.7,668.1,509.7z"/>
				<path class="st3" d="M620.7,374.7l-17.7,0.2c0,0-19,66.4-19.7,77.9c-0.7,11.2-5.5,56.8-5.5,56.8s19.6,0.5,42.2,3.2
					c22.1,4.7,24,1.9,24,1.9s-11.9-47.9-12.3-61.7c-0.4-14.1-2.2-60.6-2.2-60.6L620.7,374.7z"/>
				<g>
					<path class="st10" d="M610,375.1c0.2,0.2,0.4,0.3,0.7,0.4c0.6,0.2,1.1,0.1,1.7,0c2.3-0.3,4.7-0.6,7-0.8
						c-0.8-7.2,3.4-8.8,7.5-13.4c4.1-4.7,2.9-11,2.6-16.7c-0.1-1.6-0.1-3.2-0.8-4.7c-1.2-2.5-3.9-3.9-6.6-4.8
						c-6.8-2.1-14.6-1.6-20.6,2.3c-1.6,1-3.1,2.3-4,4c-1.3,2.6-1,5.7-0.6,8.6c0.6,4.5,1.9,8.9,4.4,12.6c2.4,3.5,6.8,5.2,7.4,9.4
						C608.9,373.2,609.2,374.4,610,375.1z"/>
					<g>
						<path class="st13" d="M597.2,344.8c0.4,1.8,1.2,3.6,0.8,5.4c-2.9-1-4.7-3.9-5.8-6.9c-0.5-1.4-0.8-2.8-0.7-4.2
							c0.1-1.4,0.7-2.9,1.9-3.7c1.6-1.1,4.4-0.7,4.8,1.4C598.7,338.9,596.6,342.1,597.2,344.8z"/>
						<path class="st13" d="M581.9,329c0.1-2.2,0.9-4.1,2.8-5.4c1.7-1.1,3.6-2.1,4.6-3.8c0.8-1.4,0.9-3.1,1.7-4.5
							c1.4-2.5,4.5-3.3,7.1-4.1c6.7-2.1,10.2-4.6,17.3-1.9c5,1.9,11.5,2.2,16.1,5c1.9,1.2,3.6,3.1,5,5.2c4.7,7.3,5.8,17.7,2.8,25.3
							c-0.7,1.7-1.6,3.3-2.5,4.8c-1.9,3-3.9,6.7-7.1,8.2c-0.2-1.4-1.3-2.2-1.6-3.6c-0.2-1-0.2-2.1-0.1-3.1c0.2-4,1.4-10.4-2.6-12.4
							c-5.1-2.5-14.6-0.2-19.5,1.9c-4.3,1.9-11.7,4.4-16.3,2.3C585.3,341.1,581.8,333.6,581.9,329z"/>
					</g>
				</g>
			</g>
			<polygon class="st9" points="626.4,372.4 671.4,359.1 654.8,302.9 668.5,293 701.6,358.1 692.4,380.7 649.5,402.9 			"/>
		</g>
		<g>
			<polygon class="st14" points="884.6,688.3 884.8,690.2 885.4,696.7 898.5,702.3 904.1,695.4 897.3,689.4 896.7,689.1 
				896.6,689.9 			"/>
			<path class="st15" d="M884,688.2l0.7,0.1l-0.4-4.5l12.5,5.3L907,580l1.3-5.2c-9.8,0.1-21.4,0.3-33.1,0.4L884,688.2z"/>
			<polygon class="st15" points="884.6,688.3 896.6,689.9 896.7,689.1 884.2,683.8 			"/>
			<path class="st15" d="M831.6,575.2l2.4,28.6l24.2,74l11.8-1.6l0.2,1.4l0.1,0l-8.7-76.3l7.4-26.1
				C855.3,575.4,841.9,575.4,831.6,575.2z"/>
			<polygon class="st14" points="858.2,677.8 857.5,677.9 852.1,685.3 859.2,691 870.9,682.8 870.2,677.7 858.7,679.2 			"/>
			<polygon class="st14" points="858.2,677.8 858.7,679.2 870.2,677.7 870,676.2 			"/>
			<path class="st16" d="M793.9,390.9c-0.4-1.6-8.8-10.2-9.3-9c-0.5,1.3-0.8,2.7-1,4.1c-3.4-1.9-11.8-9.1-11.3-0.7
				c0.2,3.6,6.6,9.9,9.7,11c0.1,0,0.1,0,0.2,0.1l11.7-2C794.2,393.3,794.3,392.3,793.9,390.9z"/>
			<g>
				<path class="st17" d="M926.2,426.5c-4.1-10.4-8.3-19.7-12.4-27.6c-0.7,3.4-1.1,6.8-0.3,10.3C915,416.3,920.7,421.5,926.2,426.5z
					"/>
				<path class="st18" d="M935,457.9c-1.4,1.5-3.1,2.7-4.8,3.6c-4.5,2.4-9.8,3.2-14.9,3.2c-4.1,0-8.3-0.5-12.3,0.4
					c-4,0.9-8,3.5-9,7.5c-0.6,2.2-0.4,5-2.3,6.2c-0.9,0.6-2,0.6-3.1,0.7c-3.3,0.1-6.9,0-9.1-2.4c-3.4-3.7-1.4-11.2-6-13.3
					c-1.3-0.6-2.9-0.5-4.3-0.8c-6.2-1-9.2-8-8.6-14.5c0.1-1.3,0.4-2.6,0.8-3.9c2.6-7.1,8.5-12.4,12.9-18.5
					c8.7-11.9,14.7-27.8,9.3-41.9c-0.5-1.3-1.1-2.7-1.4-4c-0.2-0.8-0.3-1.5-0.3-2.3c-0.1-4.2,3-7.7,5.1-11.3
					c0.2-0.3,0.4-0.7,0.5-1.1c0.4-0.9,0.7-2,1-3.1l-0.9,0.4c-2,1.7-4.3,2.9-6.9,3.3l-24.2,11.5l-9.7,39.6l-52.7-23l-0.1,0l-11.7,2
					l-3,0.5c15.5,20,40.1,32.4,60.9,47.6l-0.1,0.4l-25.1,129.6c3,0.4,9,0.6,16.7,0.8c10.3,0.2,23.7,0.2,37.4,0.1c2,0,4.1,0,6.1,0
					c11.7-0.1,23.4-0.2,33.1-0.4c15-0.2,25.7-0.4,25.7-0.4S943.1,507.4,935,457.9z"/>
			</g>
			<path class="st19" d="M888.6,361.9c2.3-9.8-0.2-25.4-6.8-31.2c-2.6-2.3-5.5-2.7-8.8-2.7c-1.6,0-2.1,0.4-2.9,0.2
				c-2.5,3.2-4.1,7-3.8,10.6c0.3,3.1,2,5.4,2.2,8.7c0.3,6,8.8,12,5.6,17.9c2.4,0.8,4.6,0.9,6.7,0.6l6.9-3.3
				C887.9,362.6,888.3,362.2,888.6,361.9z"/>
			<path class="st19" d="M880.7,366.1c2.6-0.4,4.9-1.6,6.9-3.3L880.7,366.1z"/>
			<path class="st19" d="M868.5,347.6c-0.1-3.3-1.9-5.6-2.2-8.7c-0.3-3.6,1.3-7.5,3.8-10.6c-0.4-0.1-0.8-0.2-1.4-0.6
				c-1.2-0.7-2.2-2.7-2.8-4.2c-3.1,1.9-5.3,5.4-5.9,10.7c-0.7,5.8-0.7,11.9,1.3,17.7c2,5.8,6.2,11.2,11.7,13.4
				c0.3,0.1,0.6,0.2,1,0.3C877.3,359.6,868.8,353.6,868.5,347.6z"/>
			<path class="st20" d="M928.5,428.5c-0.7-0.7-1.5-1.4-2.3-2c0.5,1.3,1,2.6,1.5,3.9c0.5,1.3,1,2.7,1.5,4c0.3,0.9,0.6,1.8,0.9,2.7
				c-0.3-0.9-0.6-1.8-0.9-2.7c-0.5-1.4-1-2.7-1.5-4c-0.5-1.3-1-2.6-1.5-3.9c-5.5-5-11.2-10.2-12.7-17.3c-0.7-3.4-0.4-6.8,0.3-10.3
				c1.2-5.5,3.4-11,4-16.6c1-9.6,0.2-23.4-2.1-32.8c-2.5-10-8-19.1-14.5-27.1c-8-9.6-22.7-20.4-33.2-7.8c-0.1,0.1-0.2,0.3-0.4,0.4
				c-1.1-0.6-2.3-1-3.6-1.4c-7.2,6.1-9.1,15.9-8.3,24.9c0.8,9,5.3,19.3,2.7,28.2c-0.2,0.9-0.6,1.7-0.6,2.6c0,0.9,0.4,1.9,1.3,2.2
				c0.5,0.2,1.1,0.1,1.6,0.1c4.4-0.6,9.2-1.3,12.3-4.6c0.4-0.5,0.8-1,1.1-1.5c-0.3-0.1-0.6-0.2-1-0.3c-5.5-2.1-9.7-7.6-11.7-13.4
				c-2-5.8-2-11.9-1.3-17.7c0.6-5.3,2.8-8.8,5.9-10.7c0.6,1.6,1.6,3.5,2.8,4.2c0.6,0.4,1,0.5,1.4,0.6c0.8,0.1,1.3-0.3,2.9-0.2
				c3.3,0,6.3,0.4,8.8,2.7c6.6,5.8,9,21.3,6.8,31.2c6.2-6.2,8.7-17.7,4.6-26.3c-0.2-0.5-0.5-1-0.7-1.4c0.3,0.5,0.5,0.9,0.7,1.4
				c4.1,8.6,1.6,20.1-4.6,26.3c0,0.2-0.1,0.3-0.1,0.5c-0.3,1.1-0.6,2.1-1,3.1c-0.2,0.4-0.3,0.7-0.5,1.1c-2,3.7-5.1,7.1-5.1,11.3
				c0,0.8,0.1,1.5,0.3,2.3c0.4,1.4,0.9,2.7,1.4,4c5.4,14.1-0.5,30-9.3,41.9c-4.5,6.1-10.4,11.4-12.9,18.5c-0.4,1.2-0.7,2.5-0.8,3.9
				c-0.6,6.4,2.4,13.4,8.6,14.5c1.5,0.2,3,0.2,4.3,0.8c4.6,2.1,2.6,9.6,6,13.3c2.2,2.4,5.9,2.5,9.1,2.4c1.1,0,2.2-0.1,3.1-0.7
				c1.9-1.2,1.7-4,2.3-6.2c1-4,5-6.6,9-7.5c4-0.9,8.2-0.4,12.3-0.4c5.1,0,10.4-0.8,14.9-3.2c1.8-1,3.4-2.2,4.8-3.6
				c-0.2-1.1-0.4-2.1-0.5-3.2c0.2,1,0.4,2.1,0.5,3.2c2.2-2.3,3.8-5,4.3-8.1C940.7,441.6,934.6,434.1,928.5,428.5z M881.7,323.8
				c0.8,0.4,1.7,0.9,2.5,1.5C883.4,324.7,882.5,324.3,881.7,323.8z"/>
		</g>
		<g>
			<g>
				<g id="XMLID_154_">
					<g id="XMLID_156_">
						<polygon class="st10" points="203.2,338.6 207.6,333.6 207.1,327.7 208.3,326.9 209.3,328.4 210.3,323.4 213.5,320.8 
							218.7,322.2 222,326.8 220,332 214.9,336 209.2,343.2 						"/>
					</g>
					<g id="XMLID_155_">
						<polygon class="st21" points="202.3,334.4 155.7,371.3 125.8,365.9 121.4,407.5 158.6,400.2 173.9,394 217.2,342.5 						"/>
					</g>
				</g>
				<g>
					<g id="XMLID_153_">
						<polygon class="st22" points="132.4,684.1 132.4,689.8 146.8,697 154,689.8 146.8,682.5 145.9,682.5 145.6,684.1 						"/>
					</g>
					<g id="XMLID_152_">
						<polygon class="st22" points="96.8,682.5 95.8,682.5 88.6,689.8 95.8,697 110.3,689.8 110.3,684.1 97,684.1 						"/>
					</g>
					<g>
						<g id="XMLID_151_">
							<path class="st21" d="M97,470.6c1.9-9.6,3.4-18.5,3.5-23.3c0.4-14.5,2.2-62.2,2.2-62.2l8.8-18.3l1.6,0c-0.1,0-0.2,0-0.4,0
								c0.4,0-0.2-3.5-0.3-3.8c-7.7-0.3-17.6,4.1-22.4,10.1c-3.6,4.5-5.7,9.9-7.8,15.3c-5.8,15.1-8.5,29.1-11.4,45
								c-1.9,10.1-3.6,20.2-4.9,30.2c-1.5,11.1-2.6,22.2-2.9,33.3c0,1.2-0.3,4.6-0.4,8.7c-0.3,8.5-0.1,19.9,3.4,20.4
								c0.7,0.1,1.3-0.2,1.9-0.5c4.5-2.2,8.1-5.2,12.1-7.7l0.2-44.5L97,470.6z"/>
						</g>
						<g id="XMLID_150_">
							<path class="st21" d="M178.3,516.4c-0.9-9.5-1.8-18.9-3-28.4c-2.3-18.8-5.4-37.6-10.7-55.9c-2-7-4.3-13.8-6.7-20.7
								c-2.8-8.4-5.6-16.7-8.5-25.1c-3.5-10.4-9.4-17.7-19.8-21.4c-1.9-0.6-3.8-1.2-5.8-1.5c0,0.2-0.1,0.4-0.1,0.7
								c-0.1,1-0.4,2.1-1,2.8l6.8,0.1c0,0,19.2,68.3,19.9,80c0.3,4.5,1.2,14.2,2.2,24.5l10.4,1.6l0.4,39.3c0.6,0.2,1.2,0.3,1.7,0.5
								c3.3,0.9,6,3.3,8.8,5.3C177,521,178.8,522.2,178.3,516.4z"/>
						</g>
						<g id="XMLID_149_">
							<path class="st21" d="M151.6,471.5c1.6,16.3,3.4,33.9,3.4,33.9s-8.4,0.2-20.6,1.1c0.9,0,1.8,0,2.7-0.1
								c8.5-0.1,17.3,3.6,25.4,6l-0.4-39.3L151.6,471.5z"/>
						</g>
						<g id="XMLID_148_">
							<path class="st21" d="M94.7,511.5c-5.8,0.3-6.5-0.8-6.5-0.8s5.2-21.4,8.9-40.1l-16.6,2.5l-0.2,44.5c1.4-0.9,2.9-1.8,4.4-2.5
								C87.8,513.6,91.2,512.4,94.7,511.5z"/>
						</g>
						<g>
							<path class="st23" d="M162.5,512.4c-8.1-2.4-16.9-6-25.4-6c-0.9,0-1.8,0-2.7,0.1c-0.8,0.1-1.5,0.1-2.3,0.2
								c-5.7,0.5-12.1,1.1-18.7,1.9c-0.3,0-0.7,0.1-1,0.1c-8.5,1.9-14.1,2.6-17.7,2.8c-3.5,0.9-6.8,2.1-10,3.6
								c-1.6,0.8-3,1.6-4.4,2.5l0,9.3l16.3,157.5h13.3v1.6h0.1l14.7-105.6l0.1-0.6l8,106.2h0.1v-1.6h13.4l17-118.3L162.5,512.4z"/>
						</g>
						<g>
							<path class="st3" d="M151.6,471.5c-1-10.3-1.9-20.1-2.2-24.5c-0.7-11.8-19.9-80-19.9-80l-6.8-0.1c-0.1,0.1-0.2,0.2-0.2,0.2
								c-0.2,0.2-0.5,0.3-0.7,0.4c-0.6,0.2-1.2,0.1-1.7,0c-2.3-0.3-4.5-0.5-6.8-0.8l-1.6,0l-8.8,18.3c0,0-1.8,47.8-2.2,62.2
								c-0.1,4.8-1.6,13.7-3.5,23.3c-3.7,18.6-8.9,40.1-8.9,40.1s0.7,1.1,6.5,0.8c3.6-0.2,9.1-0.9,17.7-2.8c0.3,0,0.7-0.1,1-0.1
								c6.7-0.8,13.1-1.4,18.7-1.9c0.8-0.1,1.6-0.1,2.3-0.2c12.2-0.9,20.6-1.1,20.6-1.1S153.2,487.8,151.6,471.5z"/>
						</g>
					</g>
				</g>
				<g id="XMLID_145_">
					<g id="XMLID_147_">
						<polygon class="st10" points="129,460 134.3,463.9 140.1,462.9 140.9,464.1 139.6,465.2 144.6,465.7 147.4,468.7 146.4,474.1 
							142.3,477.9 137,476.4 132.6,471.6 125.1,466.5 						"/>
					</g>
					<g id="XMLID_146_">
						<polygon class="st21" points="133.7,459.7 105.5,437 103.1,378.1 80.7,401 76.6,438.8 82.1,453.1 129.9,473 						"/>
					</g>
				</g>
				<g>
					<g>
						<path class="st24" d="M135.1,323.3c1.7,3.4,2.4,7.3,2.4,11.2c0,1,0,2.2,0.8,2.9c0.8,0.7,0,2.1,0.7,1.2
							c0.7-0.8,3.1-3.7,3.3-4.8c0.4-2.5,0.5-5.1,0.4-7.7c-0.1-2.2-0.4-4.6-1.8-6.4c-0.8-1.1-1.9-1.8-3-2.6c-1.6-1.1-3.2-2.2-5-2.6
							c-3.2-0.8-5.2,0.3-2.5,2.7C132.3,319,133.9,320.9,135.1,323.3z"/>
					</g>
					<g>
						<g>
							<path class="st10" d="M112.9,365.9c4.4,0.6,8.8,1.3,13.2,1.9c0.9-3.8,1.5-7.7,1.8-11.7c3.9-0.5,8.4-1.5,10-5.5
								c0.5-1.3,0.6-2.7,0.6-4c0.3-5.7,0.7-11.3,1-17c0.1-2,0.2-4-0.3-5.8c-1-3.3-3.8-5.3-6.7-6.7c-7.2-3.4-15.8-3.8-22.8,0.2
								c-1.9,1.1-3.6,2.5-4.8,4.4c-1.8,3-1.8,6.9-1.7,10.5c0.1,3.3,0.1,6.7,0.2,10c0.1,3.8,0.4,8.2,3.2,10.4
								c1.5,1.1,3.5,1.5,4.7,2.9C113.5,358.2,112.2,362.4,112.9,365.9z"/>
						</g>
					</g>
					<g>
						<path class="st24" d="M139.9,344.5c0-1.1-0.3-4.2-2-2.3c-0.4,0.5-0.6,1.2-0.6,1.9c-0.1,0.7-0.1,1.4-0.3,2
							c-0.6,1.4-2.2,2-3.6,1.9c-0.6,0-1.1-0.2-1.6-0.5c-0.5-0.3-0.8-0.8-1.2-1.2c-0.9-1.1-1.7-2.2-2.6-3.3c-1.5-1.9-4.6-1.3-6.7-1.1
							c-2.4,0.2-4.9,0.8-6.9,2.3c-0.2,0.2-0.4,0.3-0.6,0.5c-0.5,0.4-1,0.8-1.6,1c-1.9,0.8-4.2-0.3-5.4-2.1c-0.6-0.8-1.1-1.9-2-2.1
							c-0.7-0.1-1.5,0.4-1.9,1c-0.4,0.7-0.6,1.5-0.6,2.3c-0.3,2.9-0.1,6,1,8.6c2.4,5.8,7.6,6.7,12.9,6.9c2.1,0.1,4.2,0.1,6.2,0.2
							c3.8,0.1,7.8,0.2,11.1-1.9c2.9-1.8,4.8-5.1,5.6-8.6C139.8,348.2,140,346.3,139.9,344.5z M125.6,351.7
							c-2.1,1.3-4.3,1.2-6.5,0.4c-0.9-0.3-0.4-1.9,0.5-1.6c1.8,0.7,3.6,0.7,5.3-0.3C125.8,349.7,126.5,351.2,125.6,351.7z"/>
					</g>
					<g>
						<path class="st24" d="M142.3,313.8c0.4-1.4,0.8-2.7,1-4.1c-1.3,0.4-2.7,0.4-4,0.1c0-0.8,0.1-1.6,0.1-2.4c0-0.7-9-1.6-9.7-1.7
							c-6.8-0.9-13.1-1.8-19.5,1.6c-5.5,2.9-9.1,7.5-10.2,13.7c-1.1,5.9,0.4,13.7,3.6,18.8c0.1-1.6-0.6-5.4-0.2-6.8
							c0.3-1.5,0.9-2.9,1.7-4.2c1.5-2.6,3.8-4.7,6.4-6.2c4.1-2.3,8.9-3.5,13.6-3.9c4.3-0.4,9.5-0.7,13.7,0.7c2,0.7,2.3,1.2,3.6-0.8
							c0.2-0.4,2.2-4.6,2-4.6C143.7,313.9,143,313.9,142.3,313.8z"/>
					</g>
				</g>
			</g>
		</g>
		<g>
			<g>
				<g>
					<path class="st25" d="M447,303.7c-1-3.4-2-6.8-3-10.2c-1.5,0.4-2.9,0.8-4.4,1.3c0.1,2.5,0.3,5,0.4,7.5
						c-0.8-0.1-1.5-0.3-2.3-0.4c1.3,2.8,2.6,5.6,3.9,8.3c1.6-0.2,3.1-0.4,4.7-0.6C446.5,307.6,446.7,305.7,447,303.7z"/>
				</g>
				<g>
					<path class="st26" d="M405.8,393.5c-0.3-0.5-0.5-1.1-0.7-1.6c-2.2-6-3.1-12.8-0.9-18.9c0.3-0.9,0.7-1.8,1.5-2.3
						c0.6-0.4,1.4-0.5,2.1-0.6c6.5-0.7,12.9-1.5,19.4-2.2c0.6-0.1,1.2-0.2,1.7-0.5c0.4-0.3,0.6-0.9,0.8-1.4c2-5.4,13-57.8,9.6-58.2
						c3.2-0.3,6.3-0.5,9.5-0.8c3.2,16.8,6.7,64.5,2.2,70.2c-10.4,13-14.6,13.8-29.9,21.2c-1.9,0.9-3.9,1.7-6,1.7
						C411,400.1,407.6,397,405.8,393.5z"/>
				</g>
			</g>
			<g>
				<g>
					<path class="st25" d="M310.1,356.2c-3.2-1.5-6.4-3.1-9.5-4.6c-0.7,1.4-1.4,2.7-2,4.1c1.9,1.6,3.9,3.1,5.8,4.7
						c-0.6,0.5-1.2,1-1.8,1.4c2.9,0.9,5.9,1.8,8.8,2.7c0.9-1.3,1.8-2.6,2.7-3.9C312.7,359.1,311.3,357.7,310.1,356.2z"/>
				</g>
				<g>
					<g>
						<g>
							<g>
								<g>
									<polygon class="st27" points="369.3,677.2 369.3,690.8 377.2,690.8 377.2,675.8 									"/>
								</g>
								<g>
									<polygon class="st27" points="406.8,672.9 404.7,687.5 413.2,688.7 415.5,672.5 									"/>
								</g>
							</g>
							<g>
								<path class="st28" d="M413.3,688.7l-7.8-1.2l-3.1,1.2l-2.2,5.3l17.2,10.7l0,0c2.6-1.5,3.2-5,1.1-7.2l-0.7-0.7L413.3,688.7z"
									/>
							</g>
							<g>
								<path class="st28" d="M377.2,690.8l-7.9,0l-2.8,3.6l0.6,5.8l20.2,1.3l0.6-1.3c1.1-2.6-0.5-5.5-3.3-5.9l-0.4-0.1L377.2,690.8
									z"/>
							</g>
						</g>
						<g id="XMLID_110_">
							<polygon class="st29" points="345.3,546.6 359.4,610.8 367.9,683.4 380.9,683.4 391.3,501.5 347.6,502.2 							"/>
						</g>
						<g id="XMLID_108_">
							<g id="XMLID_109_">
								<polygon class="st29" points="428.9,542.9 430.6,605.1 419.2,678.6 402.5,678.5 399.1,600.6 387.1,544 383.1,507 
									419.5,502.8 								"/>
							</g>
						</g>
						<g id="XMLID_107_">
							<polygon class="st26" points="402.7,365.7 361.9,370.3 355.1,392.9 345.5,459.2 340.8,515.6 406.4,516.7 428,513.2 
								422.4,454 414.2,386.7 							"/>
						</g>
					</g>
					<g>
						<g>
							<path class="st25" d="M398.1,322c-3.3-3.3-7.9-5.2-12.5-5.1c-16.1,0.2-17.3,15.8-14.3,27.9c1.3,5.4,4,10.6,8.4,13.8
								c1.2,0.9,2.6,1.6,4,2c0,0,0,0,0,0c-0.2,0.8-0.2,10.9-0.9,10.8c3.7,0.5,7.6,0,11.1-1.4c-0.1-3,0.3-6.7,0-9.9
								c0.4-0.2,0.9-0.5,1.3-0.8c4.3-3.1,5.7-8.8,6.5-14.1C402.7,338.5,403.4,327.3,398.1,322z"/>
						</g>
						<g>
							<path class="st30" d="M399.2,337c0.5,0.6,1.4,0.8,2,1.3c2.1,1.6,0.1,5.3,1.3,7.6c1.6,3,1.3,8.3-1.8,10.8
								c-1.1,0.8-2.5,1.4-2.9,2.7c-0.5,1.5,0.5,3.4-0.5,4.6c1.7,1.7,4.6,1.4,6.8,0.4c2.2-0.9,4.4-2.3,6.9-2.2c0.8,0,1.7,0.1,2.2-0.5
								c0.3-0.4,0.3-0.9,0.3-1.3c0.6-5.6,7.1-4.1,8-8.7c0.2-1.2-1.2-4.2-1.2-5.8c0-2.5,1.5-4.8,0.6-7.4c-0.4-1.1-1.1-2-1.4-3.1
								c-0.7-2.2,0-4.5,0.5-6.8c0.4-2.3,0.4-5-1.5-6.4c-1.4-1.1-3.5-0.9-5-2c-3.1-2.4-0.8-8.8-4.4-10.6c-1.8-0.9-4,0.1-6.1-0.2
								c-2.1-0.3-3.7-2-5.5-3.2c-1.8-1.2-4.5-1.9-5.9-0.3c-1.2,1.3-0.9,3.6-2,5c-1,1.2-2.7,1.5-4.1,2.1c-6.6,3.1,5.8,5.2,7.6,7.3
								c1.5,1.8,3.1,5.3,4.2,7.4C398.7,330.2,397.8,335.4,399.2,337z"/>
						</g>
						<g>
							<path class="st30" d="M379.9,321.3c-8.1,1.7-3.2,7.8-5.8,12.7c-1,1.9-3.8,2.7-4.3,4.8c-0.4,1.7,0.8,3.3,1.8,4.8
								c1,1.5,1.8,3.6,0.6,4.8c-0.4,0.4-0.9,0.6-1.1,1.1c-0.7,1.2,0.8,2.5,2.1,3c1.3,0.6,2.8,1.6,2.3,2.9c-1.5,3.8-2.4,2.2,0,5.4
								c0.6,0.8,1.6,0.6,2.2,1.4c-1.1,1.1-2.6,1.5-4.1,0.9c-3.8-1.5-2.7,0.4-5.7,0.8c-3.1,0.5-3.2-0.5-5.9-2.2
								c-2.5-1.6-7.8-2.7-8.7-6c-0.5-1.8,0.9-3.7,0.5-5.5c-0.4-1.7-2.3-3-3.2-4.7c-1.8-3.3,0.9-6.9,1.5-10.4c0.8-4.9-2.1-10.9,3-14
								c1.1-0.7,2.5-1.1,3.6-1.7c3.3-1.9,4-5.3,5.3-8.3c1.3-3,4.7-6.1,8.8-5.4c3.7,0.6,5.7,4.1,9.4,4.5c1.3,0.1,2.8-0.2,3.9,0.3
								c0.9,0.4,1.4,1.1,1.8,1.8c0.9,1.7,3.5,7.2,1.5,8.8C386.8,323.3,383.4,320.5,379.9,321.3z"/>
						</g>
						<g>
							<path class="st31" d="M410.6,340.3c0.4-0.6,0.8-1.2,0.9-2c0.1-1.1-0.4-2-1.4-2.5c-0.6-0.3-1.2-0.5-1.8-0.8
								c-1.2-0.5-2.2-1.1-1.7-2.9c0.1-0.3,0.3-0.6,0.5-0.9c0.5-1,0.6-2.3,0.2-3.4c-0.3-0.8-0.9-1.6-1.7-1.9c-0.7-0.2-1.4,0-2.1,0
								c-2.7-0.2-1.7-2.6-1.5-4.1c0.3-2.7-1.5-4.9-4.2-5.3c-0.4-0.1-0.4,0.6,0,0.6c1.3,0.2,2.5,0.9,3.1,2.1c0.7,1.2,0.4,2.4,0.2,3.6
								c-0.2,1.1-0.2,2.4,0.7,3.2c1.4,1.2,3.5-0.5,4.6,1.4c1.1,1.7-0.1,3.2-0.6,4.8c-1.3,4.1,7,2.8,4.5,7.2
								c-0.7,1.1-1.9,2.3-1.7,3.7c0.2,1,1,1.9,2,1.8c0.4,0,0.4-0.7,0-0.6c-1.8,0.2-1.4-2-0.9-2.8C410,341.1,410.3,340.7,410.6,340.3
								z"/>
						</g>
						<g>
							<path class="st31" d="M374.1,319.6c-2.3-0.3-5.8-0.2-6.1,2.8c-0.2,1.5,0.8,2.9,1,4.4c0.5,2.9-2.5,3.6-4.5,4.5
								c-2.2,0.9-4.1,3.5-1.8,5.4c0.3,0.2,0.6,0.4,0.8,0.6c-0.2,0.7-0.3,1.3-0.5,2c-0.2,0.3-0.8,0.5-1,0.7c-0.3,0.3-0.7,0.7-0.7,1.1
								c-0.1,0.8,0.4,1.5,1.2,1.5c0.4,0,0.4-0.6,0-0.6c0.1-0.6,0.1-1.1,0.2-1.7c0.2-0.1,0.4-0.2,0.5-0.3c0.2-0.1,0.4-0.2,0.5-0.4
								c0.3-0.2,0.5-0.5,0.7-0.8c0.4-0.7,0.1-1.4-0.4-1.9c-0.5-0.5-1.1-0.7-1.5-1.5c-0.6-1.3,0.3-2.4,1.4-3.1
								c1.2-0.7,2.7-0.9,3.9-1.7c1.9-1.2,2.2-3,1.6-5c-0.5-1.6-1.4-3.6,0.3-4.7c1.3-0.8,3-0.7,4.4-0.5
								C374.5,320.3,374.5,319.6,374.1,319.6z"/>
						</g>
						<g>
							<path class="st31" d="M359,331.2c0.4-0.1,0.2-0.7-0.2-0.6c-1.8,0.5-4,1.4-4,3.6c0,0.6,0.3,1.2,0.7,1.6
								c0.7,0.6,1.6,0.6,2.2,1.4c1.2,1.6-0.3,3.4-2.2,2.9c-0.4-0.1-0.6,0.5-0.2,0.6c1.8,0.5,3.8-0.7,3.5-2.7
								c-0.2-1.1-0.8-1.6-1.7-2.1c-1.3-0.7-2.4-1.8-1.2-3.2C356.8,331.8,358,331.5,359,331.2z"/>
						</g>
					</g>
				</g>
				<path class="st26" d="M361.9,370.3c0,0-11.6,1.6-17.1,10.7l-11.5,20.5l-18-42.5l-9.4,5l9.4,52.7c0,0,14.2,9.4,15.9,9.8
					c1.7,0.5,28.2-13.1,32.8-19.1L361.9,370.3z"/>
			</g>
		</g>
		<g>
			<path class="st32" d="M325.1,516l9.3,178.4c0.2,4.8,4.1,8.7,9,8.7h110.2c4.8,0,8.8-3.8,9-8.7L472,516H325.1z"/>
			<rect x="318" y="496.3" class="st33" width="161.2" height="19.8"/>
			<polygon class="st32" points="472,496.3 325.1,496.3 336.5,443.6 460.6,443.6 			"/>
			<path class="st34" d="M438.6,486.4h-80.1c-4.1,0-7.4-3.3-7.4-7.4v-11.2c0-4.1,3.3-7.4,7.4-7.4h80.1c4.1,0,7.4,3.3,7.4,7.4v11.2
				C446,483.1,442.7,486.4,438.6,486.4z"/>
			<g>
				<path class="st3" d="M420.3,611.6c0-0.2-0.1-0.5-0.3-0.8c-0.1-0.3-0.5-1-1.1-2L420.3,611.6z"/>
				<path class="st3" d="M399.9,584.9l5.1,1.5c1.8,0.5,4.8,1.4,6.6,2l5.1,1.5c1.8,0.5,3.6-0.6,4.1-2.5l1.2-5.3
					c0.4-1.9,1.1-5,1.5-6.9l1.2-5.3c0.4-1.9-0.8-2.5-2.6-1.4l-3.2,1.9c-1.2-2.1-2.4-4.1-2.8-4.8c-1-1.7-3-3-6.9-3
					c-2.9,0-10.6,0.1-15.5,0.1l6.5,11.6c0.1,0.1,0.3,0.3,0.4,0.6c0.3,0.6,1.5,2.8,2.6,5l-3.1,1.9C398.1,583,398.1,584.3,399.9,584.9
					z"/>
				<path class="st3" d="M382,566.6c-1.7,2.6-5.9,9.4-5.9,9.4c-0.9,1.5-0.5,3.5,1.1,4.5l10.3,6.2c1.5,0.9,3.5,0.4,4.5-1.1
					c0,0,5.8-9.8,6.4-10.7c0.6-0.9,1.2-1.1,1.8-0.5l-6.5-11.6c-1.7,0-3,0-3.7,0C387.3,562.8,384.2,563.3,382,566.6z"/>
				<path class="st3" d="M363.8,610c1.2,2.3,4.4,8.2,6.7,12.6l7.3-12.2c0.9-1.5,2.5-4.3,3.8-6.6l3.7,2.1c1.9,1.1,3.1,0.4,2.6-1.5
					l-1.3-5.3c-0.5-1.9-1.2-4.9-1.7-6.8l-1.3-5.3c-0.5-1.9-2.3-2.9-4.1-2.3l-5.1,1.7c-1.8,0.6-4.8,1.5-6.6,2.1l-5.1,1.7
					c-1.8,0.6-1.7,2,0.2,3l2.8,1.6c-1.4,2.8-3.1,6.1-3.5,7C361.5,603.4,362,606.4,363.8,610z"/>
				<path class="st3" d="M377.8,610.3l-7.3,12.2c1.3,2.4,2.4,4.4,2.6,4.9c0.8,1.5,1.9,4.4,8.8,4.4c7,0,10.1-0.1,10.1-0.1
					c1.8,0,3.2-1.5,3.2-3.3l-0.1-12.2c0-1.8-1.5-3.3-3.2-3.3c0,0-11.9,0.1-13.8,0.1c-1.2,0-1.4-0.8-1-1.6
					C377.3,611.3,377.5,610.9,377.8,610.3z"/>
				<path class="st3" d="M420.3,611.6l6,12.3c2.1-4,5.7-10.9,7.2-13.9c2-4,2.5-7.5,1.6-9.3c-0.9-1.8-5.4-10.7-5.4-10.7
					c-0.8-1.6-2.7-2.2-4.2-1.2l-10.2,6.4c-1.5,0.9-2,3-1.2,4.6c0,0,3.1,5.7,4.8,8.9c0.5,1,0.9,1.7,1.1,2
					C420.2,611.2,420.3,611.4,420.3,611.6z"/>
				<path class="st3" d="M424.9,626.7c0.2-0.4,0.8-1.4,1.5-2.8l-6-12.3c0.1,0.7-0.2,1.2-1.1,1.2c-0.6,0-3.5,0-6.2,0l0-3.8
					c0-2.2-1.2-2.9-2.5-1.6l-3.8,3.8c-1.4,1.3-3.6,3.5-5,4.9l-3.8,3.8c-1.4,1.3-1.3,3.5,0,4.8l3.9,3.7c1.4,1.3,3.7,3.5,5.1,4.8
					l3.9,3.7c1.4,1.3,2.5,0.6,2.5-1.6l0-3.6c1.5,0,3.2,0,4.8,0C422.3,631.5,423.9,628.4,424.9,626.7z"/>
			</g>
		</g>
		<g>
			<path class="st35" d="M143.2,516l9.3,178.4c0.2,4.8,4.1,8.7,9,8.7h110.2c4.8,0,8.8-3.8,9-8.7L290,516H143.2z"/>
			<rect x="136" y="496.3" class="st36" width="161.2" height="19.8"/>
			<polygon class="st35" points="290,496.3 143.2,496.3 154.6,443.6 278.6,443.6 			"/>
			<path class="st34" d="M256.6,486.4h-80.1c-4.1,0-7.4-3.3-7.4-7.4v-11.2c0-4.1,3.3-7.4,7.4-7.4h80.1c4.1,0,7.4,3.3,7.4,7.4v11.2
				C264,483.1,260.7,486.4,256.6,486.4z"/>
			<g>
				<path class="st3" d="M238.4,611.6c0-0.2-0.1-0.5-0.3-0.8c-0.1-0.3-0.5-1-1.1-2L238.4,611.6z"/>
				<path class="st3" d="M218,584.9l5.1,1.5c1.8,0.5,4.8,1.4,6.6,2l5.1,1.5c1.8,0.5,3.6-0.6,4.1-2.5l1.2-5.3c0.4-1.9,1.1-5,1.5-6.9
					l1.2-5.3c0.4-1.9-0.8-2.5-2.6-1.4l-3.2,1.9c-1.2-2.1-2.4-4.1-2.8-4.8c-1-1.7-3-3-6.9-3c-2.9,0-10.6,0.1-15.5,0.1l6.5,11.6
					c0.1,0.1,0.3,0.3,0.4,0.6c0.3,0.6,1.5,2.8,2.6,5l-3.1,1.9C216.2,583,216.1,584.3,218,584.9z"/>
				<path class="st3" d="M200.1,566.6c-1.7,2.6-5.9,9.4-5.9,9.4c-0.9,1.5-0.5,3.5,1.1,4.5l10.3,6.2c1.5,0.9,3.5,0.4,4.5-1.1
					c0,0,5.8-9.8,6.4-10.7c0.6-0.9,1.2-1.1,1.8-0.5l-6.5-11.6c-1.7,0-3,0-3.7,0C205.3,562.8,202.2,563.3,200.1,566.6z"/>
				<path class="st3" d="M181.8,610c1.2,2.3,4.4,8.2,6.7,12.6l7.3-12.2c0.9-1.5,2.5-4.3,3.8-6.6l3.7,2.1c1.9,1.1,3.1,0.4,2.6-1.5
					l-1.3-5.3c-0.5-1.9-1.2-4.9-1.7-6.8l-1.3-5.3c-0.5-1.9-2.3-2.9-4.1-2.3l-5.1,1.7c-1.8,0.6-4.8,1.5-6.6,2.1l-5.1,1.7
					c-1.8,0.6-1.7,2,0.2,3l2.8,1.6c-1.4,2.8-3.1,6.1-3.5,7C179.6,603.4,180,606.4,181.8,610z"/>
				<path class="st3" d="M195.9,610.3l-7.3,12.2c1.3,2.4,2.4,4.4,2.6,4.9c0.8,1.5,1.9,4.4,8.8,4.4c7,0,10.1-0.1,10.1-0.1
					c1.8,0,3.2-1.5,3.2-3.3l-0.1-12.2c0-1.8-1.5-3.3-3.2-3.3c0,0-11.9,0.1-13.8,0.1c-1.2,0-1.4-0.8-1-1.6
					C195.3,611.3,195.6,610.9,195.9,610.3z"/>
				<path class="st3" d="M238.4,611.6l6,12.3c2.1-4,5.7-10.9,7.2-13.9c2-4,2.5-7.5,1.6-9.3c-0.9-1.8-5.4-10.7-5.4-10.7
					c-0.8-1.6-2.7-2.2-4.2-1.2l-10.2,6.4c-1.5,0.9-2,3-1.2,4.6c0,0,3.1,5.7,4.8,8.9c0.5,1,0.9,1.7,1.1,2
					C238.2,611.2,238.3,611.4,238.4,611.6z"/>
				<path class="st3" d="M242.9,626.7c0.2-0.4,0.8-1.4,1.5-2.8l-6-12.3c0.1,0.7-0.2,1.2-1.1,1.2c-0.6,0-3.5,0-6.2,0l0-3.8
					c0-2.2-1.2-2.9-2.5-1.6l-3.8,3.8c-1.4,1.3-3.6,3.5-5,4.9l-3.8,3.8c-1.4,1.3-1.3,3.5,0,4.8l3.9,3.7c1.4,1.3,3.7,3.5,5.1,4.8
					l3.9,3.7c1.4,1.3,2.5,0.6,2.5-1.6l0-3.6c1.5,0,3.2,0,4.8,0C240.3,631.5,242,628.4,242.9,626.7z"/>
			</g>
		</g>
		<g>
			<path class="st18" d="M499.5,513.8l9.3,178.4c0.2,4.8,4.1,8.7,9,8.7H628c4.8,0,8.8-3.8,9-8.7l9.3-178.4H499.5z"/>
			<rect x="492.4" y="494" class="st37" width="161.2" height="19.8"/>
			<polygon class="st18" points="646.4,494 499.5,494 510.9,441.3 635,441.3 			"/>
			<path class="st2" d="M613,484.2h-80.1c-4.1,0-7.4-3.3-7.4-7.4v-11.2c0-4.1,3.3-7.4,7.4-7.4H613c4.1,0,7.4,3.3,7.4,7.4v11.2
				C620.3,480.9,617,484.2,613,484.2z"/>
			<g>
				<path class="st3" d="M594.7,609.4c0-0.2-0.1-0.5-0.3-0.8c-0.1-0.3-0.5-1-1.1-2L594.7,609.4z"/>
				<path class="st3" d="M574.3,582.6l5.1,1.5c1.8,0.5,4.8,1.4,6.6,2l5.1,1.5c1.8,0.5,3.6-0.6,4.1-2.5l1.2-5.3
					c0.4-1.9,1.1-5,1.5-6.9l1.2-5.3c0.4-1.9-0.8-2.5-2.6-1.4l-3.2,1.9c-1.2-2.1-2.4-4.1-2.8-4.8c-1-1.7-3-3-6.9-3
					c-2.9,0-10.6,0.1-15.5,0.1l6.5,11.6c0.1,0.1,0.3,0.3,0.4,0.6c0.3,0.6,1.5,2.8,2.6,5l-3.1,1.9
					C572.5,580.7,572.5,582.1,574.3,582.6z"/>
				<path class="st3" d="M556.4,564.4c-1.7,2.6-5.9,9.4-5.9,9.4c-0.9,1.5-0.5,3.5,1.1,4.5l10.3,6.2c1.5,0.9,3.5,0.4,4.5-1.1
					c0,0,5.8-9.8,6.4-10.7c0.6-0.9,1.2-1.1,1.8-0.5l-6.5-11.6c-1.7,0-3,0-3.7,0C561.6,560.5,558.6,561,556.4,564.4z"/>
				<path class="st3" d="M538.2,607.7c1.2,2.3,4.4,8.2,6.7,12.6l7.3-12.2c0.9-1.5,2.5-4.3,3.8-6.6l3.7,2.1c1.9,1.1,3.1,0.4,2.6-1.5
					l-1.3-5.3c-0.5-1.9-1.2-4.9-1.7-6.8l-1.3-5.3c-0.5-1.9-2.3-2.9-4.1-2.3l-5.1,1.7c-1.8,0.6-4.8,1.5-6.6,2.1l-5.1,1.7
					c-1.8,0.6-1.7,2,0.2,3l2.8,1.6c-1.4,2.8-3.1,6.1-3.5,7C535.9,601.2,536.4,604.1,538.2,607.7z"/>
				<path class="st3" d="M552.2,608.1l-7.3,12.2c1.3,2.4,2.4,4.4,2.6,4.9c0.8,1.5,1.9,4.4,8.8,4.4c7,0,10.1-0.1,10.1-0.1
					c1.8,0,3.2-1.5,3.2-3.3l-0.1-12.2c0-1.8-1.5-3.3-3.2-3.3c0,0-11.9,0.1-13.8,0.1c-1.2,0-1.4-0.8-1-1.6
					C551.7,609,551.9,608.6,552.2,608.1z"/>
				<path class="st3" d="M594.7,609.4l6,12.3c2.1-4,5.7-10.9,7.2-13.9c2-4,2.5-7.5,1.6-9.3c-0.9-1.8-5.4-10.7-5.4-10.7
					c-0.8-1.6-2.7-2.2-4.2-1.2l-10.2,6.4c-1.5,0.9-2,3-1.2,4.6c0,0,3.1,5.7,4.8,8.9c0.5,1,0.9,1.7,1.1,2
					C594.6,608.9,594.7,609.1,594.7,609.4z"/>
				<path class="st3" d="M599.2,624.5c0.2-0.4,0.8-1.4,1.5-2.8l-6-12.3c0.1,0.7-0.2,1.2-1.1,1.2c-0.6,0-3.5,0-6.2,0l0-3.8
					c0-2.2-1.2-2.9-2.5-1.6L581,609c-1.4,1.3-3.6,3.5-5,4.9l-3.8,3.8c-1.4,1.3-1.3,3.5,0,4.8l3.9,3.7c1.4,1.3,3.7,3.5,5.1,4.8
					l3.9,3.7c1.4,1.3,2.5,0.6,2.5-1.6l0-3.6c1.5,0,3.2,0,4.8,0C596.7,629.3,598.3,626.1,599.2,624.5z"/>
			</g>
		</g>
		<g>
			<path class="st19" d="M805.2,370.4c-1.2-1.6-2.5-3.3-3.7-4.9c0.3-1.8,0.6-3.6,0.8-5.4c-0.4-0.3-0.7-0.5-1.1-0.8
				c-0.3,0.4-0.7,0.8-1,1.3c-0.2-1.6-0.4-3.1-0.6-4.7c-0.9-0.9-1.9-1.7-2.8-2.6c-1.7,0.3-3.3,0.7-5,1c-1.1,1.3-2.3,2.7-3.4,4
				c0.5,1.6,1,3.3,1.5,4.8c1.5,1.6,2.9,2.4,4.5,4.2c1.5,1.8,3.2,4.8,4.8,6.9C801.2,372.9,803.2,371.6,805.2,370.4z"/>
			<path class="st18" d="M802.9,364.2c6.2,6.7,12.5,13.3,18.2,20.4c3.5,4.4,8.4,16.8,14.6,12.2c7-5.2,14-10.4,21-15.6
				c1.2-0.9,2.5-1.8,3.9-2.3c8.3-2.8,12.3,8.7,14.2,14.9c1.1,3.6,0.9,2.4,1.7,6c0.4,2,0.8,4.2,0.1,6.1c-0.8,2.3-3,3.7-5,4.8
				c-8.6,4.9-17.7,8.7-27.3,11.3c-5,1.4-10.2,2.5-15.3,3.2c-5.6,0.8-5.9-0.3-8.4-5.4c-8.9-18.1-19.1-30.2-27.4-48.5
				C796.5,369.1,799.7,366.6,802.9,364.2z"/>
		</g>
		<g>
			<path class="st38" d="M515,327.6l-2.2-21.3c-0.3-2.7-2.7-4.7-5.4-4.6l-4.7,0.3c-2.7,0.2-4.9,2.4-4.9,5.2l0.3,21.4
				c0,2.1-1.2,4-3.1,4.8c-5.2,2.1-8.7,7.3-8.3,13.2l4.7,81c0.2,2.8,2.6,5,5.4,4.8l31.5-1.8c2.8-0.2,5-2.6,4.8-5.4l-4.7-81
				c-0.3-5.8-4.4-10.6-9.8-12.1C516.7,331.4,515.3,329.7,515,327.6z"/>
			
				<rect x="496.2" y="301.2" transform="matrix(0.9983 -5.773878e-002 5.773878e-002 0.9983 -16.6742 29.6709)" class="st39" width="17.9" height="4.3"/>
			<g>
				<path class="st40" d="M527.3,372.2l-2.7,0.2l-1.4-24.1c-1.1-9.8-6.7-9.9-6.9-9.9l-0.1-2.7c0.3,0,8.2-0.1,9.6,12.3L527.3,372.2z"
					/>
			</g>
		</g>
		<g>
			<path class="st41" d="M255,675.6c-4.3,0-7.7,3.5-7.7,7.7v27.3c0,4.3,3.5,7.7,7.7,7.7h23.7c4.8,0,9.3-1.6,12.9-4.4
				c3.4,2.7,7.6,4.4,12.3,4.4h37.5c3.3,0,5.9-2.7,5.9-5.9v-30.9c0-3.3-2.7-5.9-5.9-5.9h-37.5c-4.6,0-8.9,1.6-12.3,4.4
				c-3.6-2.7-8-4.4-12.9-4.4H255z"/>
			<rect x="239.5" y="688.3" class="st41" width="8.4" height="17.2"/>
			<rect x="230" y="687" class="st42" width="11.1" height="19.9"/>
			<rect x="305.2" y="679.7" class="st43" width="2.3" height="34.5"/>
			<rect x="317.6" y="679.7" class="st43" width="2.3" height="34.5"/>
			<rect x="329.2" y="679.7" class="st43" width="2.3" height="34.5"/>
		</g>
		<g>
			<path class="st41" d="M211,242.6c-2.8-3.9-8.1-4.8-12-2l-24.8,17.6c-3.9,2.8-4.8,8.1-2,12l15.3,21.5c3.1,4.4,7.5,7.4,12.3,8.9
				c-0.3,4.8,1,9.8,4,14l24.2,34.1c2.1,3,6.3,3.7,9.2,1.6l28-19.9c3-2.1,3.7-6.3,1.6-9.2L242.5,287c-3-4.2-7.3-7-11.9-8.3
				c0.2-5-1.2-10.1-4.3-14.5L211,242.6z"/>
			
				<rect x="174.6" y="241.4" transform="matrix(0.8152 -0.5792 0.5792 0.8152 -108.4798 152.1667)" class="st41" width="19.2" height="9.3"/>
			
				<rect x="167.9" y="232.5" transform="matrix(0.8152 -0.5792 0.5792 0.8152 -105.1805 147.7739)" class="st42" width="22.2" height="12.4"/>
			
				<rect x="205.4" y="301.7" transform="matrix(0.8152 -0.5792 0.5792 0.8152 -133.9767 186.1084)" class="st43" width="38.5" height="2.5"/>
			
				<rect x="213.4" y="312.9" transform="matrix(0.8152 -0.5792 0.5792 0.8152 -138.9944 192.7887)" class="st43" width="38.5" height="2.5"/>
			
				<rect x="220.9" y="323.5" transform="matrix(0.8152 -0.5792 0.5792 0.8152 -143.703 199.0563)" class="st43" width="38.5" height="2.5"/>
		</g>
		<polygon class="st10" points="487.7,394.3 490.8,391.2 494.1,395.4 497.5,396 501.6,403 496.8,409.8 487.3,411.8 484.2,400.1 		
			"/>
		<g>
			<path class="st44" d="M707.3,311.7l115.8-17.1l18.2-27.6l-114.8,17C726.5,283.9,707.9,312.6,707.3,311.7z"/>
			<polygon class="st45" points="733,290.7 804.6,280.1 807.1,297.5 734.5,308.2 			"/>
			<g>
				<path class="st17" d="M720.6,258.4c0,0,1.2,6.2,6.4,17.8l28.6,68.9l-7.8,3.2L711.9,262L720.6,258.4z"/>
				
					<ellipse transform="matrix(0.9234 -0.3839 0.3839 0.9234 -46.9851 292.0061)" class="st17" cx="707.9" cy="263.7" rx="13.8" ry="5.9"/>
				<path class="st43" d="M702.1,263.7l3,7.1c1.4-0.3,2.9-0.8,4.3-1.4c4.8-2,8.9-4.5,9-7.8C716.6,258,706.3,261.9,702.1,263.7z"/>
				<path class="st3" d="M709.9,269.2c-2.4,1-4.9,1.6-7,1.9c-3.9,0.5-6.9-0.2-7.8-2.2l19.2,46.2l16.7,40.1l22.4-9.3L719,263.2
					l-0.6-1.5C718.3,264.8,714.5,267.3,709.9,269.2z"/>
			</g>
			<g>
				<path class="st17" d="M852.4,237.7c0,0-3.6,6.3-8.7,19.9l-31.6,79.8l-6.2-2.4l39.6-100L852.4,237.7z"/>
				
					<ellipse transform="matrix(0.9297 0.3684 -0.3684 0.9297 145.3656 -293.9038)" class="st17" cx="842.4" cy="233.7" rx="10.8" ry="6.8"/>
				<path class="st43" d="M839.4,229.8l-3.3,8.3c0.9,0.7,2,1.3,3.1,1.7c3.8,1.5,7.6,2.1,9.8-0.7
					C850.6,234.6,842.8,231.1,839.4,229.8z"/>
				<path class="st3" d="M839.7,240c-1.9-0.8-3.6-1.9-4.8-3.1c-2.3-2.2-3.4-4.9-2.5-7.1l-21.2,53.5l-18.4,46.4l17.7,7l38-95.9
					l0.7-1.7C846.9,241.8,843.3,241.3,839.7,240z"/>
			</g>
			<g>
				<path class="st17" d="M825.9,231.3c0,0-1.9,7-3.5,21.4l-11,85.1l-6.6-0.9l13.8-106.6L825.9,231.3z"/>
				
					<ellipse transform="matrix(0.9917 0.1287 -0.1287 0.9917 36.3633 -102.9788)" class="st46" cx="815.2" cy="229.9" rx="10.8" ry="6.8"/>
				<path class="st43" d="M811.3,226.9l-1.1,8.8c1.1,0.4,2.2,0.7,3.5,0.9c4,0.5,7.8,0.1,9.3-3.1
					C823.4,228.8,814.9,227.3,811.3,226.9z"/>
				<path class="st17" d="M814.1,236.7c-2.1-0.3-3.9-0.9-5.4-1.8c-2.8-1.6-4.5-3.9-4.2-6.3l-7.4,57.1l-6.4,49.5l18.8,2.4l13.3-102.3
					l0.2-1.8C821.5,236.6,818,237.1,814.1,236.7z"/>
			</g>
			<g>
				<path class="st47" d="M769.8,248.4c0,0-1.7,7-2,21.3l-3.9,84.3l-9.6-0.4l4.9-105.6L769.8,248.4z"/>
				
					<ellipse transform="matrix(0.9989 4.656538e-002 -4.656538e-002 0.9989 12.3525 -34.854)" class="st47" cx="754.3" cy="247.7" rx="15.6" ry="6.7"/>
				<path class="st48" d="M748.3,244.9l-0.4,8.7c1.6,0.4,3.3,0.6,5.1,0.7c5.9,0.3,11.3-0.3,13-3.6
					C765.9,246,753.5,245.1,748.3,244.9z"/>
				<path class="st46" d="M753.7,254.4c-3-0.2-5.7-0.7-8.1-1.4c-4.2-1.4-7-3.6-6.9-5.9l-2.6,56.6l-2.3,49l27.4,1.3l4.7-101.3
					l0.1-1.8C764.3,253.9,759.3,254.6,753.7,254.4z"/>
			</g>
			
				<rect x="712.6" y="302.7" transform="matrix(0.9893 -0.1461 0.1461 0.9893 -41.9709 116.3657)" class="st49" width="117.1" height="82.4"/>
			<polygon class="st50" points="707.3,311.7 705.4,347.6 819.6,330.7 823,294 			"/>
			<polygon class="st51" points="841.2,266.3 852.5,342.9 835,375.4 823,293.9 			"/>
			<polygon class="st52" points="823.1,294.6 837.7,318.4 856,289.7 841.3,267 			"/>
			<path class="st3" d="M755.4,304.6c0,0,21-3.6,30.3,13.1c0,0,23.6-22.6,29.3-22.6l-17.9-9.4l-12.9,5.8L755.4,304.6z"/>
		</g>
		<g>
			<g>
				<path class="st53" d="M301.7,370.6c-0.2,0.2-0.4,0.5-0.6,0.7c0,0.1,0.1,0.1,0.1,0.2C301.3,371.2,301.5,370.9,301.7,370.6z"/>
				<path class="st53" d="M291.5,360.1c-4.8-1.7-10.1,0-14.7,2.3c-6.5,3.2-12.6,7.3-18,12.1c-4.5,4-9,8.9-15,9.4
					c-2.7,0.2-5.3-0.5-8-0.6c-2.7-0.1-5.7,0.8-7,3.1c-1.5,2.7-0.2,6,1.4,8.6c2.5,3.9,5.9,7.5,10.3,8.9c2.9,0.9,6,0.8,9.1,0.4
					c13.9-1.7,26.4-8.9,36.9-18C293.5,380.2,306,365.3,291.5,360.1z"/>
			</g>
			<g>
				<path class="st18" d="M301.4,364.7c-0.1,0.3-0.1,0.6-0.2,0.9c0.1,0,0.1,0.1,0.2,0.1C301.4,365.4,301.4,365.1,301.4,364.7z"/>
				<path class="st18" d="M287.5,360.1c-5.1,0.7-9,4.7-12,8.8c-4.4,5.8-7.9,12.3-10.4,19.1c-2.1,5.6-3.9,12-9,15.2
					c-2.3,1.4-5,2-7.4,3.2c-2.4,1.2-4.7,3.3-4.8,5.9c-0.1,3.1,2.6,5.4,5.2,7c4,2.3,8.7,4,13.3,3.1c3-0.5,5.7-2.1,8.2-3.8
					c11.6-7.9,19.4-20.1,24.5-33C298.6,377,302.8,358.1,287.5,360.1z"/>
			</g>
			<g>
				<path class="st18" d="M288.4,364c-0.1,0.3-0.2,0.6-0.3,0.9c-0.1,0-0.1,0-0.2,0C288.1,364.7,288.2,364.3,288.4,364z"/>
				<path class="st18" d="M302.8,366.7c4.1,3,5.6,8.5,6.3,13.5c1,7.2,0.9,14.5-0.2,21.7c-0.9,5.9-2.4,12.4,0.5,17.7
					c1.3,2.3,3.4,4.1,4.9,6.3c1.5,2.2,2.5,5.1,1.3,7.5c-1.4,2.7-4.9,3.5-8,3.6c-4.6,0.1-9.5-0.8-13.1-3.7c-2.4-1.9-4-4.6-5.4-7.3
					c-6.3-12.6-7.2-27-5.4-40.7C284.9,376.1,290.4,357.5,302.8,366.7z"/>
			</g>
			<path class="st18" d="M296.5,370.7l-6.7-4.2c-1.2-0.7-1.5-2.3-0.8-3.5l5.3-8.5c0.7-1.2,2.3-1.5,3.5-0.8l6.7,4.2
				c1.2,0.7,1.5,2.3,0.8,3.5l-5.3,8.5C299.3,371,297.7,371.4,296.5,370.7z"/>
		</g>
	</g>
</g>
</svg>
